 <svg xmlns="http://www.w3.org/2000/svg" viewBox="0 0 32 32">
      <linearGradient id="linear-gradient">
        <stop offset="0%"></stop>
        <stop offset="100%"></stop>
      </linearGradient>
      <path
        fill="url(#linear-gradient)"
        d="M11.53 30c-3.19-.033-6.307-3.259-6.331-3.291-1.278-1.229-2.386-2.862-2.917-4.556-.896-2.856.706-5.131 3.236-6.395 1.192-.595 2.513-.904 3.68-1.547 1.014-.559 1.512-1.398 2.044-2.382.36-.666.774-1.295 1.238-1.893.671-.867 1.627-2.346 2.665-2.761 1.361-.417 1.569 1.211 1.21 2.094-.481 1.184-1.337 2.479-.551 3.735l.338.54-4.464 1.48c-1.853.614-2.813 2.717-.756 3.792l.133.069c1.328.69 2.028 1.802 2.683 3.101.643 1.323 1.389 2.538 2.429 3.593l.213.216-.094.289C15.616 28.148 13.844 30 11.56 30h-.03zM26.85 8.55c-.358 0-.652-.215-.762-.308l-2.292-2.299c-1.071-1.137.658-2.076 1.482-2.577.856-.521 2.536-1.68 3.615-1.332l.115.037.882.882.036.071c.413.814-.501 2.263-.869 2.943-.39.72-1.2 2.583-2.207 2.583z"
      ></path>
      <path
        fill="#FFF"
        d="M15.759 25.145c-1.037-1.149-1.549-2.186-2.001-3.101l-.098-.198c-.353-.71-.727-1.432-1.286-2.003-.545-.558-1.244-.802-1.841-1.269-1.756-1.194-.378-3.043 1.139-3.549l4.535-1.515.035-.047.044-.021 7.504-7.509 2.277 2.277-9.094 9.084c1.423 1.461 2.982.287 4.522-.238.633-.216 1.338-.155 1.718.471.51.839-.386 1.508-.937 2.009-.871.793-1.813 1.485-2.868 2.012-1.572.783-2.366 1.656-2.794 3.383l-.226.914-.629-.7z"
      ></path>
      <path
        fill="url(#linear-gradient)"
        d="M21.518 13.252a.502.502 0 01-.354-.146l-2.271-2.271a.5.5 0 01.707-.707l2.271 2.271a.5.5 0 01-.353.853z"
      ></path>
      <path
        fill="none"
        stroke="#000"
        d="M5.239 26.762s-5.783-5.575-1.894-9.466c2.334-2.334 5.259-2.231 6.815-3.786 1.167-1.167.757-2.271 4.543-6.057 0 0 .757-.758 1.515 0 1.514 1.514-2.272 3.785 0 6.057M5.239 26.762s5.575 5.782 9.464 1.893c2.334-2.335 1.475-4.501 3.029-6.057 1.167-1.168 2.272-.757 5.3-3.785 0 0 .758-.758 0-1.517-1.514-1.514-3.785 2.272-6.057 0m-.758-3.786l7.447-7.447M11.675 22.598L25.937 8.335M9.402 20.325L23.664 6.063m-7.447 7.447l-4.542 1.514c-2.272.758-2.673 2.831-.758 3.788 3.029 1.515 2.272 3.786 5.301 6.814m-7.572-6.058l3.786 3.786M7.13 21.083l3.786 3.785M29.848 2.91l-.757-.757c-.759-.758-4.545 1.515-5.302 2.271-.758.757 0 1.514 0 1.514l2.271 2.271s.758.757 1.515 0c.757-.756 3.029-4.542 2.273-5.299zm-5.301 6.814l-.757-.757m-1.517 1.514l.758.757m-3.028 3.029l-.757-.757m-.757 2.272l-.758-.757"
      ></path>
    </svg>